<svg xmlns="http://www.w3.org/2000/svg" viewBox="0 0 512 512">
  <defs>
    <mask id="s-cloud">
      <rect width="512" height="512" fill="white"/>
      <path d="M329 187c-25-28-106-25-123 13-18 41 38 55 78 64 44 10 90 26 75 67-17 46-118 54-158 8" fill="none" stroke="black" stroke-width="39" stroke-linecap="round"/>
    </mask>
  </defs>
  <rect width="512" height="512" rx="104" fill="#274f59"/>
  <circle cx="354" cy="166" r="66" fill="#e5cd8d"/>
  <path d="M119 374c-42 0-76-33-76-75 0-38 29-70 66-75 17-64 75-110 143-110 80 0 146 63 149 143 40 11 68 47 68 89 0 49-40 89-89 89H119c-42 0-76-27-76-61Z" fill="#eef2ed" mask="url(#s-cloud)"/>
</svg>
